<?xml version="1.0" encoding="UTF-8"?>
<svg xmlns="http://www.w3.org/2000/svg" style="stroke-dasharray:none; shape-rendering:auto; font-family:'Arial'; text-rendering:auto; fill-opacity:1; color-interpolation:auto; color-rendering:auto; font-size:12; fill:black; stroke:black; image-rendering:auto; stroke-miterlimit:10; stroke-linecap:square; stroke-linejoin:miter; font-style:normal; stroke-width:1; stroke-dashoffset:0; font-weight:normal; stroke-opacity:1;" contentScriptType="text/ecmascript" preserveAspectRatio="xMidYMid meet" zoomAndPan="magnify" version="1.0" contentStyleType="text/css" xml:xlink="http://www.w3.org/1999/xlink" width="921" height="481"><rect x="0" y="240" width="921" height="241" ry="0" rx="0" style="stroke:#000000; fill:#0ED8FF" /><g componentSequence="2"><text x="-360" y="6" transform="rotate(270)" text-anchor="middle" style="font-weight:bold;font-size:10px;stroke:none; fill:#434343"><tspan dy="14" x="-360">RH</tspan></text></g><rect x="0" y="0" width="921" height="241" ry="0" rx="0" style="stroke:#000000; fill:#FFFF00" /><g componentSequence="1"><text x="-120" y="6" transform="rotate(270)" text-anchor="middle" style="font-weight:bold;font-size:10px;stroke:none; fill:#434343"><tspan dy="14" x="-120">Solicitante</tspan></text></g><g sequence="3"><ellipse cx="117" cy="117" rx="17" ry="17" stroke-width="1" style="fill:url(#linearGradient66FF6696FF96B6FFB6_1472042204);" stroke="336633" /></g><g sequence="4"><rect x="220" y="330" width="106" height="54" ry="5" rx="5" style="fill:url(#linearGradientF8FBFEEDF5FCDEEDFAD4E7F8E2E5E9_1501192283);" stroke="191970" /></g><g componentSequence="4"><text x="273" y="346" text-anchor="middle" style="font-weight:bold;font-size:10px;stroke:none; fill:#333399"><tspan dy="14" x="273">Resposta RH</tspan></text></g><g sequence="5"><polygon points=" 400 350 430 320 460 350 430 380 400 350" style="fill:url(#linearGradientFAFBFCFFFFCC_1564868524);" stroke="000000" /></g><g componentSequence="5"><text x="430" y="382" text-anchor="middle" style="font-weight:bold;font-size:10px;stroke:none; fill:#333399"><tspan dy="14" x="430">Exclusivo</tspan></text></g><g sequence="6"><rect x="390" y="80" width="106" height="67" ry="5" rx="5" style="fill:url(#linearGradientF8FBFEEDF5FCDEEDFAD4E7F8E2E5E9_407333472);" stroke="191970" /></g><g componentSequence="6"><text x="443" y="95" text-anchor="middle" style="font-weight:bold;font-size:10px;stroke:none; fill:#333399"><tspan dy="14" x="443">Correção</tspan><tspan dy="14" x="443">Solicitação</tspan></text></g><g sequence="7"><ellipse cx="837" cy="357" rx="17" ry="17" stroke-width="3" style="fill:url(#linearGradientFF6666FF9696FFB6B6_602347200);" stroke="993333" /></g><g sequence="11"><rect x="560" y="80" width="106" height="67" ry="5" rx="5" style="fill:url(#linearGradientF8FBFEEDF5FCDEEDFAD4E7F8E2E5E9_697684575);" stroke="191970" /></g><g componentSequence="11"><text x="613" y="95" text-anchor="middle" style="font-weight:bold;font-size:10px;stroke:none; fill:#333399"><tspan dy="14" x="613">Respsota</tspan><tspan dy="14" x="613">Solicitação</tspan></text></g><g sequence="13"><polygon points=" 720 100 750 70 780 100 750 130 720 100" style="fill:url(#linearGradientFAFBFCFFFFCC_1541402718);" stroke="000000" /></g><g componentSequence="13"><text x="750" y="132" text-anchor="middle" style="font-weight:bold;font-size:10px;stroke:none; fill:#333399"><tspan dy="14" x="750">Exclusivo</tspan></text></g><g sequence="15"><ellipse cx="837" cy="105" rx="17" ry="17" stroke-width="1" style="fill:url(#linearGradientFFFF66FFFF96FFFFB6_2020119855);" stroke="999900" /></g><g sequence="15"><polygon points=" 823 98 838 98 838 91 853 106 838 121 838 114 823 114" style="stroke:none; fill:#999900" /></g><g sequence="17"><ellipse cx="137" cy="357" rx="17" ry="17" stroke-width="1" style="fill:url(#linearGradientFFFF66FFFF96FFFFB6_1663229428);" stroke="999900" /></g><g sequence="17"><polygon points=" 123 350 138 350 138 343 153 358 138 373 138 366 123 366" style="stroke:#999900; fill:none" /></g><g sequence="20"><ellipse cx="277" cy="105" rx="17" ry="17" stroke-width="1" style="fill:url(#linearGradientFFFF66FFFF96FFFFB6_1688403173);" stroke="999900" /></g><g sequence="20"><polygon points=" 263 98 278 98 278 91 293 106 278 121 278 114 263 114" style="stroke:none; fill:#999900" /></g><g componentSequence="8"><text x="202" y="232" style="font-size:10px;font-weight:none;stroke:none; fill:#333399" text-anchor="left" /></g><g componentSequence="9"><text x="373" y="360" style="font-size:10px;font-weight:none;stroke:none; fill:#333399" text-anchor="left" /></g><g componentSequence="10"><text x="447" y="233" style="font-size:10px;font-weight:none;stroke:none; fill:#333399" text-anchor="left" /></g><g componentSequence="12"><text x="534" y="234" style="font-size:10px;font-weight:none;stroke:none; fill:#333399" text-anchor="left" /></g><g componentSequence="14"><text x="703" y="113" style="font-size:10px;font-weight:none;stroke:none; fill:#333399" text-anchor="left" /></g><g componentSequence="16"><text x="810" y="109" style="font-size:10px;font-weight:none;stroke:none; fill:#333399" text-anchor="left" /></g><g componentSequence="18"><text x="197" y="357" style="font-size:10px;font-weight:none;stroke:none; fill:#333399" text-anchor="left" /></g><g componentSequence="19"><text x="808" y="248" style="font-size:10px;font-weight:none;stroke:none; fill:#333399" text-anchor="left" /></g><g componentSequence="21"><text x="352" y="108" style="font-size:10px;font-weight:none;stroke:none; fill:#333399" text-anchor="left" /></g><path style="fill:none; stroke:#000000;stroke-width:1" d="M126.0 132.0 L255.0 329.0" /><polygon style="fill:#000000; stroke:#000000;" points=" 254 318 255 329 245 323 251 322" /><path style="fill:none; stroke:#000000;stroke-width:1" d="M326.0 359.0 L399.0 361.0" /><polygon style="fill:#000000; stroke:#000000;" points=" 389 356 399 361 389 366 391 361" /><path style="fill:none; stroke:#000000;stroke-width:1" d="M155.0 357.0 L219.0 357.0" /><polygon style="fill:#000000; stroke:#000000;" points=" 209 352 219 357 209 362 211 357" /><path style="fill:none; stroke:#000000;stroke-width:1" d="M432.0 319.0 L441.0 147.0" /><polygon style="fill:#000000; stroke:#000000;" points=" 435 157 441 147 445 157 441 155" /><path style="fill:none; stroke:#000000;stroke-width:1" d="M460.0 321.0 L588.0 147.0" /><polygon style="fill:#000000; stroke:#000000;" points=" 578 152 588 147 586 158 583 153" /><path style="fill:none; stroke:#000000;stroke-width:1" d="M389.0 110.0 L294.0 105.0" /><polygon style="fill:#000000; stroke:#000000;" points=" 304 111 294 105 304 101 302 105" /><path style="fill:none; stroke:#000000;stroke-width:1" d="M765.0 156.0 L831.0 341.0" /><polygon style="fill:#000000; stroke:#000000;" points=" 832 330 831 341 823 333 828 333" /><path style="fill:none; stroke:#000000;stroke-width:1" d="M666.0 113.0 L719.0 113.0" /><polygon style="fill:#000000; stroke:#000000;" points=" 709 108 719 113 709 118 711 113" /><path style="fill:none; stroke:#000000;stroke-width:1" d="M780.0 110.0 L820.0 106.0" /><polygon style="fill:#000000; stroke:#000000;" points=" 810 102 820 106 811 112 812 107" /><defs><linearGradient xmlns:xlink="http://www.w3.org/1999/xlink" xlink:href="#linearGradient66FF6696FF96B6FFB6" id="linearGradient66FF6696FF96B6FFB6_1472042204" x1="0" y1="100.0" x2="0" y2="135.0" gradientUnits="userSpaceOnUse" xlink:type="simple" xlink:actuate="onLoad" xlink:show="other" /><linearGradient id="linearGradient66FF6696FF96B6FFB6"><stop style="stop-color:#66FF66;stop-opacity:1;" offset="0.0" id="stop66FF66" /><stop style="stop-color:#96FF96;stop-opacity:1;" offset="0.5" id="stop96FF96" /><stop style="stop-color:#B6FFB6;stop-opacity:1;" offset="1.0" id="stopB6FFB6" /></linearGradient><linearGradient xmlns:xlink="http://www.w3.org/1999/xlink" xlink:href="#linearGradientF8FBFEEDF5FCDEEDFAD4E7F8E2E5E9" id="linearGradientF8FBFEEDF5FCDEEDFAD4E7F8E2E5E9_1501192283" x1="0" y1="330.0" x2="0" y2="436.0" gradientUnits="userSpaceOnUse" xlink:type="simple" xlink:actuate="onLoad" xlink:show="other" /><linearGradient id="linearGradientF8FBFEEDF5FCDEEDFAD4E7F8E2E5E9"><stop style="stop-color:#F8FBFE;stop-opacity:1;" offset="0.0" id="stopF8FBFE" /><stop style="stop-color:#EDF5FC;stop-opacity:1;" offset="0.25" id="stopEDF5FC" /><stop style="stop-color:#DEEDFA;stop-opacity:1;" offset="0.5" id="stopDEEDFA" /><stop style="stop-color:#D4E7F8;stop-opacity:1;" offset="0.75" id="stopD4E7F8" /><stop style="stop-color:#E2E5E9;stop-opacity:1;" offset="1.0" id="stopE2E5E9" /></linearGradient><linearGradient xmlns:xlink="http://www.w3.org/1999/xlink" xlink:href="#linearGradientFAFBFCFFFFCC" id="linearGradientFAFBFCFFFFCC_1564868524" x1="0" y1="320.0" x2="0" y2="380.0" gradientUnits="userSpaceOnUse" xlink:type="simple" xlink:actuate="onLoad" xlink:show="other" /><linearGradient id="linearGradientFAFBFCFFFFCC"><stop style="stop-color:#FAFBFC;stop-opacity:1;" offset="0.0" id="stopFAFBFC" /><stop style="stop-color:#FFFFCC;stop-opacity:1;" offset="1.0" id="stopFFFFCC" /></linearGradient><linearGradient xmlns:xlink="http://www.w3.org/1999/xlink" xlink:href="#linearGradientF8FBFEEDF5FCDEEDFAD4E7F8E2E5E9" id="linearGradientF8FBFEEDF5FCDEEDFAD4E7F8E2E5E9_407333472" x1="0" y1="80.0" x2="0" y2="186.0" gradientUnits="userSpaceOnUse" xlink:type="simple" xlink:actuate="onLoad" xlink:show="other" /><linearGradient xmlns:xlink="http://www.w3.org/1999/xlink" xlink:href="#linearGradientFF6666FF9696FFB6B6" id="linearGradientFF6666FF9696FFB6B6_602347200" x1="0" y1="340.0" x2="0" y2="375.0" gradientUnits="userSpaceOnUse" xlink:type="simple" xlink:actuate="onLoad" xlink:show="other" /><linearGradient id="linearGradientFF6666FF9696FFB6B6"><stop style="stop-color:#FF6666;stop-opacity:1;" offset="0.0" id="stopFF6666" /><stop style="stop-color:#FF9696;stop-opacity:1;" offset="0.5" id="stopFF9696" /><stop style="stop-color:#FFB6B6;stop-opacity:1;" offset="1.0" id="stopFFB6B6" /></linearGradient><linearGradient xmlns:xlink="http://www.w3.org/1999/xlink" xlink:href="#linearGradientF8FBFEEDF5FCDEEDFAD4E7F8E2E5E9" id="linearGradientF8FBFEEDF5FCDEEDFAD4E7F8E2E5E9_697684575" x1="0" y1="80.0" x2="0" y2="186.0" gradientUnits="userSpaceOnUse" xlink:type="simple" xlink:actuate="onLoad" xlink:show="other" /><linearGradient xmlns:xlink="http://www.w3.org/1999/xlink" xlink:href="#linearGradientFAFBFCFFFFCC" id="linearGradientFAFBFCFFFFCC_1541402718" x1="0" y1="70.0" x2="0" y2="130.0" gradientUnits="userSpaceOnUse" xlink:type="simple" xlink:actuate="onLoad" xlink:show="other" /><linearGradient xmlns:xlink="http://www.w3.org/1999/xlink" xlink:href="#linearGradientFFFF66FFFF96FFFFB6" id="linearGradientFFFF66FFFF96FFFFB6_2020119855" x1="0" y1="88.0" x2="0" y2="123.0" gradientUnits="userSpaceOnUse" xlink:type="simple" xlink:actuate="onLoad" xlink:show="other" /><linearGradient id="linearGradientFFFF66FFFF96FFFFB6"><stop style="stop-color:#FFFF66;stop-opacity:1;" offset="0.0" id="stopFFFF66" /><stop style="stop-color:#FFFF96;stop-opacity:1;" offset="0.5" id="stopFFFF96" /><stop style="stop-color:#FFFFB6;stop-opacity:1;" offset="1.0" id="stopFFFFB6" /></linearGradient><linearGradient xmlns:xlink="http://www.w3.org/1999/xlink" xlink:href="#linearGradientFFFF66FFFF96FFFFB6" id="linearGradientFFFF66FFFF96FFFFB6_1663229428" x1="0" y1="340.0" x2="0" y2="375.0" gradientUnits="userSpaceOnUse" xlink:type="simple" xlink:actuate="onLoad" xlink:show="other" /><linearGradient xmlns:xlink="http://www.w3.org/1999/xlink" xlink:href="#linearGradientFFFF66FFFF96FFFFB6" id="linearGradientFFFF66FFFF96FFFFB6_1688403173" x1="0" y1="88.0" x2="0" y2="123.0" gradientUnits="userSpaceOnUse" xlink:type="simple" xlink:actuate="onLoad" xlink:show="other" /></defs></svg>
